<svg width="42" height="96" viewBox="0 0 42 96" fill="none" xmlns="http://www.w3.org/2000/svg">
<g clip-path="url(#clip0_1_1225)">
<g filter="url(#filter0_d_1_1225)">
<rect x="-128" width="170" height="96" rx="16" fill="white"/>
</g>
<g clip-path="url(#clip1_1_1225)">
<path d="M-64.4738 54.6792C-64.6354 54.2892 -64.7868 53.8792 -64.9484 53.5292L-65.6956 51.8592L-65.7259 51.8292C-67.9475 47.0292 -70.3205 42.1492 -72.835 37.3492L-72.9359 37.1492C-73.1884 36.6792 -73.4408 36.1592 -73.7034 35.6792C-74.0265 35.1092 -74.3396 34.4992 -74.8546 33.9192C-75.3566 33.3123 -75.9883 32.8234 -76.7043 32.4877C-77.4203 32.1519 -78.2026 31.9778 -78.9948 31.9778C-79.7869 31.9778 -80.5692 32.1519 -81.2852 32.4877C-82.0012 32.8234 -82.633 33.3123 -83.135 33.9192C-83.6096 34.4992 -83.963 35.1092 -84.2861 35.6792C-84.5386 36.1992 -84.791 36.7092 -85.0536 37.1792L-85.1546 37.3792C-87.6286 42.1792 -90.042 47.0592 -92.2636 51.8592L-92.3242 51.9192C-92.5463 52.4392 -92.8089 52.9792 -93.0613 53.5592C-93.2229 53.9092 -93.3845 54.2892 -93.546 54.7092C-93.9822 55.809 -94.1215 57.0024 -93.9502 58.1717C-93.7788 59.341 -93.3028 60.446 -92.5689 61.3776C-91.835 62.3093 -90.8687 63.0355 -89.7651 63.4847C-88.6615 63.9338 -87.4588 64.0905 -86.2754 63.9392C-85.141 63.7913 -84.0486 63.4171 -83.0643 62.8392C-81.7515 62.1092 -80.4893 61.0492 -79.0755 59.5192C-77.6618 61.0492 -76.3693 62.1092 -75.0868 62.8492C-73.8535 63.5661 -72.4569 63.9617 -71.0274 63.9992C-69.372 64.006 -67.77 63.4195 -66.5171 62.3479C-65.2643 61.2764 -64.4453 59.7921 -64.2112 58.1692C-63.9408 57.003 -64.0323 55.7831 -64.4738 54.6692V54.6792ZM-78.9746 56.3392C-80.7114 54.1392 -81.8424 52.1192 -82.2261 50.3892C-82.3851 49.7481 -82.4194 49.083 -82.3271 48.4292C-82.2564 47.9192 -82.0646 47.4692 -81.802 47.0892C-81.1961 46.2192 -80.1358 45.6792 -78.9746 45.6792C-78.4231 45.6625 -77.876 45.7817 -77.3825 46.0261C-76.889 46.2704 -76.4645 46.6323 -76.1471 47.0792C-75.8846 47.4792 -75.6927 47.9192 -75.6321 48.4292C-75.5311 49.0092 -75.5715 49.6792 -75.7331 50.3892C-76.1168 52.0892 -77.2478 54.1292 -78.9746 56.3392ZM-66.1097 57.8192C-66.2244 58.6432 -66.5551 59.423 -67.0689 60.0809C-67.5828 60.7389 -68.2617 61.252 -69.0381 61.5692C-69.8055 61.8892 -70.6538 61.9792 -71.4818 61.8892C-72.2897 61.7892 -73.0975 61.5292 -73.9255 61.0492C-75.3004 60.2077 -76.5366 59.1622 -77.5911 57.9492C-75.4705 55.3492 -74.1881 52.9792 -73.7034 50.8692C-73.4711 49.8692 -73.4408 48.9692 -73.5418 48.1392C-73.6679 47.3525 -73.9642 46.602 -74.4103 45.9392C-74.9196 45.2205 -75.5995 44.6367 -76.39 44.2391C-77.1806 43.8415 -78.0578 43.6424 -78.9443 43.6592C-80.8124 43.6592 -82.4786 44.5192 -83.4884 45.9292C-83.943 46.5904 -84.2367 47.3468 -84.3467 48.1392C-84.478 48.9792 -84.4477 49.9092 -84.1852 50.8692C-83.7004 52.9792 -82.3877 55.3792 -80.2974 57.9692C-81.334 59.2054 -82.5731 60.2601 -83.963 61.0892C-84.8011 61.5692 -85.5989 61.8192 -86.4067 61.9192C-87.663 62.0786 -88.9321 61.7404 -89.938 60.9783C-90.944 60.2162 -91.6055 59.0917 -91.7789 57.8492C-91.8799 57.0492 -91.8092 56.2492 -91.486 55.3492C-91.3851 55.0292 -91.2336 54.7092 -91.072 54.3292C-90.8499 53.8092 -90.5873 53.2692 -90.3349 52.7292L-90.2945 52.6592C-88.1133 47.8892 -85.7302 43.0192 -83.2561 38.2492L-83.1552 38.0492C-82.9027 37.5692 -82.6503 37.0592 -82.3877 36.5792C-82.1252 36.0692 -81.8424 35.5792 -81.4789 35.1792C-81.1642 34.8072 -80.771 34.5081 -80.327 34.3028C-79.883 34.0976 -79.3989 33.9912 -78.9089 33.9912C-78.4189 33.9912 -77.9349 34.0976 -77.4908 34.3028C-77.0468 34.5081 -76.6536 34.8072 -76.339 35.1792C-75.9855 35.5792 -75.6927 36.0692 -75.4302 36.5792C-75.1777 37.0592 -74.9253 37.5792 -74.6627 38.0492L-74.5617 38.2492C-72.0978 43.0192 -69.7147 47.8892 -67.4931 52.6592L-67.4628 52.6892C-67.2003 53.2092 -66.9781 53.7892 -66.7256 54.2892C-66.5641 54.6792 -66.4025 54.9892 -66.3015 55.3192C-66.1097 56.2192 -66.0087 57.0192 -66.1097 57.8192ZM-52.0532 56.1192C-52.8141 56.1302 -53.5678 55.9715 -54.2583 55.6547C-54.9488 55.3379 -55.5584 54.8712 -56.0419 54.2892C-57.1284 53.0492 -57.705 51.4503 -57.6576 49.8092C-57.6742 48.1324 -57.079 46.5061 -55.9813 45.2292C-55.4736 44.6398 -54.8416 44.1678 -54.1297 43.8465C-53.4179 43.5251 -52.6436 43.3622 -51.8613 43.3692C-51.1253 43.3493 -50.3961 43.515 -49.7425 43.8509C-49.089 44.1868 -48.5323 44.6817 -48.1251 45.2892L-48.0241 43.7192H-45.0755V55.7992H-48.0342L-48.1352 54.0392C-48.5551 54.6879 -49.1354 55.2195 -49.8212 55.5835C-50.5069 55.9476 -51.2752 56.132 -52.0532 56.1192ZM-51.2857 53.2392C-50.7001 53.2392 -50.1851 53.0792 -49.7004 52.7892C-49.256 52.4692 -48.8925 52.0492 -48.6098 51.5392C-48.3573 51.0292 -48.226 50.4192 -48.226 49.7392C-48.1867 49.1486 -48.3028 48.558 -48.563 48.0251C-48.8232 47.4923 -49.2185 47.0354 -49.7104 46.6992C-50.1831 46.4076 -50.7289 46.253 -51.2857 46.253C-51.8426 46.253 -52.3884 46.4076 -52.861 46.6992C-53.3054 47.0192 -53.6689 47.4392 -53.9516 47.9492C-54.2187 48.5117 -54.35 49.1279 -54.3354 49.7492C-54.3747 50.3398 -54.2586 50.9304 -53.9984 51.4633C-53.7382 51.9962 -53.3429 52.453 -52.8509 52.7892C-52.3763 53.0792 -51.8613 53.2392 -51.2857 53.2392ZM-40.0264 40.4592C-40.0264 40.8092 -40.087 41.1292 -40.2486 41.3892C-40.4102 41.6392 -40.6323 41.8692 -40.9252 42.0292C-41.218 42.1892 -41.531 42.2492 -41.8542 42.2492C-42.1773 42.2492 -42.5005 42.1892 -42.7933 42.0292C-43.0703 41.8765 -43.3032 41.6562 -43.4699 41.3892C-43.6262 41.1043 -43.7029 40.7833 -43.692 40.4592C-43.692 40.0992 -43.6213 39.7792 -43.4699 39.5292C-43.3083 39.2292 -43.076 39.0492 -42.7933 38.8892C-42.5005 38.7292 -42.1874 38.6592 -41.8542 38.6592C-41.5327 38.6519 -41.2149 38.7273 -40.9317 38.878C-40.6485 39.0287 -40.4096 39.2497 -40.2385 39.5192C-40.0915 39.8108 -40.0187 40.1335 -40.0264 40.4592ZM-43.4598 55.7592V43.6992H-40.2486V55.7792H-43.4699L-43.4598 55.7592ZM-31.6653 46.8592V46.8992C-31.8167 46.8292 -32.0187 46.7992 -32.1702 46.7692C-32.3721 46.7292 -32.5337 46.7292 -32.7255 46.7292C-33.6243 46.7292 -34.3008 46.9892 -34.7452 47.5292C-35.2299 48.0792 -35.452 48.8492 -35.452 49.8392V55.7692H-38.6733V43.6892H-35.7146L-35.6136 45.5192C-35.2905 44.8792 -34.9067 44.3992 -34.3614 44.0392C-33.819 43.6894 -33.1805 43.5147 -32.5337 43.5392C-32.3014 43.5392 -32.0793 43.5592 -31.8874 43.5992C-31.7864 43.6292 -31.7258 43.6292 -31.6653 43.6592V46.8592ZM-30.3727 55.7592V38.7392H-27.1615V45.2392C-26.7071 44.6592 -26.1921 44.2092 -25.5458 43.8592C-24.5227 43.3624 -23.3604 43.2215 -22.2465 43.4592C-21.1326 43.6969 -20.132 44.2993 -19.4062 45.1692C-18.3174 46.4118 -17.7406 48.0147 -17.7905 49.6592C-17.7739 51.336 -18.3692 52.9624 -19.4668 54.2392C-19.9745 54.8286 -20.6066 55.3006 -21.3184 55.6219C-22.0302 55.9433 -22.8045 56.1062 -23.5868 56.0992C-24.3229 56.1192 -25.052 55.9534 -25.7056 55.6175C-26.3592 55.2817 -26.9158 54.7867 -27.3231 54.1792L-27.4241 55.7492L-30.3727 55.7792V55.7592ZM-24.1624 53.2392C-23.5868 53.2392 -23.0718 53.0792 -22.5871 52.7892C-22.1428 52.4692 -21.7793 52.0492 -21.4965 51.5392C-21.234 51.0292 -21.1128 50.4192 -21.1128 49.7392C-21.1128 49.0692 -21.234 48.4592 -21.4965 47.9492C-21.7617 47.4574 -22.1343 47.0304 -22.5871 46.6992C-23.0598 46.4076 -23.6055 46.253 -24.1624 46.253C-24.7193 46.253 -25.265 46.4076 -25.7377 46.6992C-26.1921 47.0192 -26.5455 47.4392 -26.8384 47.9492C-27.1054 48.5117 -27.2368 49.1279 -27.2221 49.7492C-27.2615 50.3398 -27.1454 50.9304 -26.8852 51.4633C-26.625 51.9962 -26.2296 52.453 -25.7377 52.7892C-25.2631 53.0792 -24.7481 53.2392 -24.1624 53.2392ZM-16.5788 55.7692V43.6892H-13.6201L-13.5191 45.2592C-13.1473 44.6574 -12.6198 44.1649 -11.9914 43.8326C-11.3629 43.5003 -10.6562 43.3403 -9.94437 43.3692C-9.13037 43.3553 -8.33029 43.5793 -7.6442 44.0133C-6.95809 44.4473 -6.41642 45.072 -6.08692 45.8092C-5.73349 46.5692 -5.54163 47.5092 -5.54163 48.5592V55.7992H-8.76289V48.9792C-8.76289 48.1392 -8.95477 47.4792 -9.33849 46.9892C-9.72221 46.5092 -10.2473 46.2492 -10.9138 46.2492C-11.3985 46.2492 -11.8226 46.3492 -12.1962 46.5692C-12.5497 46.7992 -12.8425 47.0892 -13.0647 47.4992C-13.2893 47.9137 -13.4007 48.379 -13.3878 48.8492V55.7692H-16.5788ZM-3.93604 55.7692V38.7292H-0.714767V45.2292C-0.278442 44.646 0.289154 44.1715 0.942978 43.8434C1.5968 43.5153 2.31885 43.3427 3.0518 43.3392C3.81274 43.3282 4.56641 43.487 5.25691 43.8038C5.94741 44.1206 6.55702 44.5872 7.04053 45.1692C8.12164 46.4117 8.69437 48.0098 8.64612 49.6492C8.66366 51.3262 8.0683 52.9528 6.96984 54.2292C6.46211 54.8186 5.83009 55.2906 5.11826 55.6119C4.40643 55.9333 3.63213 56.0962 2.84985 56.0892C2.11377 56.1092 1.38465 55.9434 0.731056 55.6075C0.0774612 55.2717 -0.479141 54.7767 -0.886429 54.1692L-0.97731 55.7392L-3.93604 55.7692ZM2.30456 53.2392C2.89024 53.2392 3.40524 53.0792 3.87984 52.7892C4.33426 52.4692 4.68768 52.0492 4.98053 51.5392C5.23298 51.0292 5.36426 50.4192 5.36426 49.7392C5.40363 49.1486 5.28753 48.558 5.02734 48.0251C4.76714 47.4923 4.37177 47.0354 3.87984 46.6992C3.40719 46.4076 2.86145 46.253 2.30456 46.253C1.74766 46.253 1.20191 46.4076 0.729256 46.6992C0.284943 47.0192 -0.0785828 47.4392 -0.361328 47.9492C-0.643188 48.5066 -0.775345 49.1265 -0.745056 49.7492C-0.784424 50.3398 -0.668327 50.9304 -0.408134 51.4633C-0.147949 51.9962 0.247437 52.453 0.739357 52.7892C1.21397 53.0792 1.69867 53.2392 2.30456 53.2392Z" fill="#FF385C"/>
</g>
</g>
<defs>
<filter id="filter0_d_1_1225" x="-168" y="-10" width="250" height="176" filterUnits="userSpaceOnUse" color-interpolation-filters="sRGB">
<feFlood flood-opacity="0" result="BackgroundImageFix"/>
<feColorMatrix in="SourceAlpha" type="matrix" values="0 0 0 0 0 0 0 0 0 0 0 0 0 0 0 0 0 0 127 0" result="hardAlpha"/>
<feOffset dy="30"/>
<feGaussianBlur stdDeviation="20"/>
<feColorMatrix type="matrix" values="0 0 0 0 0.831373 0 0 0 0 0.85098 0 0 0 0 0.909804 0 0 0 0.2 0"/>
<feBlend mode="normal" in2="BackgroundImageFix" result="effect1_dropShadow_1_1225"/>
<feBlend mode="normal" in="SourceGraphic" in2="effect1_dropShadow_1_1225" result="shape"/>
</filter>
<clipPath id="clip0_1_1225">
<rect width="170" height="96" fill="white" transform="translate(-128)"/>
</clipPath>
<clipPath id="clip1_1_1225">
<rect width="103" height="32" fill="white" transform="translate(-94 32)"/>
</clipPath>
</defs>
</svg>
