<svg width="250" height="176" viewBox="0 0 250 176" fill="none" xmlns="http://www.w3.org/2000/svg">
<g filter="url(#filter0_d_1_1230)">
<rect x="40" y="10" width="170" height="96" rx="16" fill="white"/>
</g>
<g clip-path="url(#clip0_1_1230)">
<path fill-rule="evenodd" clip-rule="evenodd" d="M137.899 67.025C131.914 71.5733 123.238 74 115.768 74C105.295 74 95.8661 70.0064 88.7328 63.3642C88.1724 62.8419 88.6745 62.13 89.3471 62.5368C97.0453 67.1544 106.564 69.9324 116.396 69.9324C123.027 69.9324 130.322 68.518 137.029 65.5829C138.043 65.1391 138.89 66.267 137.899 67.025Z" fill="#FF9900"/>
<path fill-rule="evenodd" clip-rule="evenodd" d="M140.388 64.0899C139.626 63.0822 135.33 63.6138 133.403 63.8495C132.815 63.9235 132.725 63.3966 133.255 63.0175C136.675 60.5354 142.289 61.2518 142.943 62.0838C143.598 62.9205 142.773 68.7214 139.558 71.4902C139.065 71.9154 138.594 71.6889 138.814 71.125C139.536 69.2668 141.154 65.1022 140.388 64.0899Z" fill="#FF9900"/>
<path fill-rule="evenodd" clip-rule="evenodd" d="M133.537 45.4944V43.0816C133.537 42.7164 133.806 42.4714 134.129 42.4714H144.607C144.943 42.4714 145.212 42.721 145.212 43.0816V45.1477C145.207 45.4944 144.925 45.9474 144.423 46.6638L138.993 54.6557C141.011 54.6049 143.141 54.9146 144.97 55.9777C145.382 56.2181 145.494 56.5694 145.526 56.916V59.4906C145.526 59.8419 145.149 60.2533 144.755 60.0407C141.531 58.2981 137.249 58.1086 133.685 60.0592C133.322 60.2626 132.941 59.8558 132.941 59.5045V57.0593C132.941 56.6664 132.945 55.9962 133.326 55.3999L139.617 46.0999H134.142C133.806 46.0999 133.537 45.8549 133.537 45.4944Z" fill="#101010"/>
<path fill-rule="evenodd" clip-rule="evenodd" d="M95.3147 60.5491H92.1269C91.822 60.526 91.5799 60.2903 91.5575 59.9898V43.1232C91.5575 42.7858 91.831 42.5177 92.1717 42.5177H95.1443C95.4537 42.5315 95.7003 42.7765 95.7227 43.0816V45.2864H95.781C96.5566 43.1555 98.0138 42.1617 99.9776 42.1617C101.973 42.1617 103.219 43.1555 104.116 45.2864C104.887 43.1555 106.64 42.1617 108.519 42.1617C109.855 42.1617 111.316 42.7303 112.209 44.006C113.217 45.4251 113.011 47.4866 113.011 49.2939L113.007 59.939C113.007 60.2764 112.733 60.5491 112.392 60.5491H109.209C108.891 60.526 108.635 60.2625 108.635 59.939V50.9995C108.635 50.2877 108.698 48.5127 108.546 47.8379C108.308 46.7054 107.595 46.3865 106.671 46.3865C105.9 46.3865 105.093 46.9181 104.766 47.7686C104.439 48.6191 104.47 50.0427 104.47 50.9995V59.939C104.47 60.2764 104.197 60.5491 103.856 60.5491H100.673C100.35 60.526 100.099 60.2625 100.099 59.939L100.094 50.9995C100.094 49.1183 100.395 46.3495 98.1303 46.3495C95.8393 46.3495 95.9289 49.0489 95.9289 50.9995V59.939C95.9289 60.2764 95.6554 60.5491 95.3147 60.5491" fill="#101010"/>
<path fill-rule="evenodd" clip-rule="evenodd" d="M154.233 42.1617C158.963 42.1617 161.523 46.3495 161.523 51.6744C161.523 56.819 158.694 60.9004 154.233 60.9004C149.588 60.9004 147.059 56.7126 147.059 51.4941C147.059 46.2432 149.619 42.1617 154.233 42.1617ZM154.259 45.6053C151.91 45.6053 151.762 48.9056 151.762 50.9625C151.762 53.0241 151.731 57.4245 154.233 57.4245C156.703 57.4245 156.82 53.8746 156.82 51.7114C156.82 50.2877 156.761 48.5867 156.344 47.237C155.986 46.0629 155.273 45.6053 154.259 45.6053Z" fill="#101010"/>
<path fill-rule="evenodd" clip-rule="evenodd" d="M167.656 60.5491H164.482C164.164 60.526 163.908 60.2625 163.908 59.939L163.904 43.0677C163.931 42.758 164.195 42.5177 164.518 42.5177H167.473C167.751 42.5315 167.979 42.7257 168.042 42.9891V45.5684H168.1C168.992 43.2618 170.243 42.1617 172.445 42.1617C173.875 42.1617 175.269 42.6933 176.166 44.1493C177 45.499 177 47.7686 177 49.4002V60.0176C176.964 60.3134 176.7 60.5491 176.386 60.5491H173.189C172.898 60.526 172.655 60.3041 172.624 60.0176V50.8562C172.624 49.0119 172.83 46.3125 170.629 46.3125C169.853 46.3125 169.14 46.8487 168.786 47.6622C168.338 48.693 168.28 49.7192 168.28 50.8562V59.939C168.275 60.2764 167.997 60.5491 167.656 60.5491" fill="#101010"/>
<path fill-rule="evenodd" clip-rule="evenodd" d="M125.184 52.4926C125.184 53.7729 125.215 54.8407 124.588 55.9777C124.081 56.9022 123.274 57.4707 122.382 57.4707C121.158 57.4707 120.44 56.5093 120.44 55.0903C120.44 52.2892 122.875 51.7807 125.184 51.7807V52.4926ZM128.399 60.5029C128.188 60.6971 127.883 60.7109 127.645 60.5815C126.587 59.6756 126.395 59.2549 125.816 58.3906C124.068 60.2302 122.826 60.7803 120.561 60.7803C117.876 60.7803 115.791 59.0747 115.791 55.6588C115.791 52.9918 117.19 51.1752 119.19 50.2877C120.92 49.5019 123.337 49.3633 125.184 49.146V48.7208C125.184 47.9396 125.242 47.0152 124.794 46.3403C124.408 45.7348 123.664 45.4852 123.005 45.4852C121.79 45.4852 120.709 46.1277 120.445 47.4589C120.391 47.7547 120.18 48.0459 119.889 48.0598L116.8 47.7177C116.54 47.6577 116.248 47.4404 116.325 47.029C117.033 43.1648 120.423 42 123.453 42C125.005 42 127.031 42.4252 128.255 43.6363C129.807 45.1293 129.659 47.1215 129.659 49.2893V54.4108C129.659 55.95 130.277 56.6249 130.86 57.4569C131.062 57.7527 131.107 58.1086 130.847 58.3305C130.197 58.8898 129.04 59.9298 128.403 60.5122L128.399 60.5029" fill="#101010"/>
<path fill-rule="evenodd" clip-rule="evenodd" d="M83.393 52.4928C83.393 53.7732 83.4244 54.8409 82.7967 55.978C82.29 56.9024 81.4875 57.471 80.5908 57.471C79.3668 57.471 78.6539 56.5095 78.6539 55.0905C78.6539 52.2894 81.0884 51.781 83.393 51.781V52.4928ZM86.6077 60.5032C86.3969 60.6973 86.0921 60.7112 85.8544 60.5818C84.7963 59.6758 84.608 59.2552 84.0252 58.3908C82.2766 60.2305 81.0391 60.7805 78.7705 60.7805C76.0893 60.7805 74 59.0749 74 55.6591C74 52.992 75.4033 51.1755 77.3985 50.288C79.1291 49.5022 81.5458 49.3635 83.393 49.1463V48.721C83.393 47.9399 83.4513 47.0154 83.0074 46.3406C82.6173 45.735 81.8731 45.4854 81.2185 45.4854C80.0034 45.4854 78.9184 46.1279 78.6539 47.4591C78.6001 47.755 78.3894 48.0462 78.1024 48.06L75.0088 47.718C74.7487 47.6579 74.4618 47.4407 74.5335 47.0293C75.2464 43.1651 78.6315 42.0002 81.6623 42.0002C83.2136 42.0002 85.2402 42.4255 86.4642 43.6365C88.0155 45.1295 87.8675 47.1217 87.8675 49.2896V54.411C87.8675 55.9503 88.4863 56.6251 89.0691 57.4571C89.2754 57.7529 89.3202 58.1089 89.0602 58.3307C88.41 58.89 87.2533 59.93 86.6166 60.5124L86.6077 60.5032" fill="#101010"/>
</g>
<defs>
<filter id="filter0_d_1_1230" x="0" y="0" width="250" height="176" filterUnits="userSpaceOnUse" color-interpolation-filters="sRGB">
<feFlood flood-opacity="0" result="BackgroundImageFix"/>
<feColorMatrix in="SourceAlpha" type="matrix" values="0 0 0 0 0 0 0 0 0 0 0 0 0 0 0 0 0 0 127 0" result="hardAlpha"/>
<feOffset dy="30"/>
<feGaussianBlur stdDeviation="20"/>
<feColorMatrix type="matrix" values="0 0 0 0 0.831373 0 0 0 0 0.85098 0 0 0 0 0.909804 0 0 0 0.2 0"/>
<feBlend mode="normal" in2="BackgroundImageFix" result="effect1_dropShadow_1_1230"/>
<feBlend mode="normal" in="SourceGraphic" in2="effect1_dropShadow_1_1230" result="shape"/>
</filter>
<clipPath id="clip0_1_1230">
<rect width="103" height="32" fill="white" transform="translate(74 42)"/>
</clipPath>
</defs>
</svg>
