<svg width="250" height="176" viewBox="0 0 250 176" fill="none" xmlns="http://www.w3.org/2000/svg">
<g filter="url(#filter0_d_1_1226)">
<rect x="40" y="10" width="170" height="96" rx="16" fill="white"/>
</g>
<g clip-path="url(#clip0_1_1226)">
<path d="M118.427 58.4105C118.427 62.8522 114.938 66.1252 110.656 66.1252C106.374 66.1252 102.885 62.8522 102.885 58.4105C102.885 53.9374 106.374 50.6957 110.656 50.6957C114.938 50.6957 118.427 53.9374 118.427 58.4105ZM115.026 58.4105C115.026 55.6348 113.003 53.7357 110.656 53.7357C108.309 53.7357 106.287 55.6348 106.287 58.4105C106.287 61.1583 108.309 63.0852 110.656 63.0852C113.003 63.0852 115.026 61.1548 115.026 58.4105Z" fill="#EA4335"/>
<path d="M135.192 58.4105C135.192 62.8522 131.703 66.1252 127.421 66.1252C123.139 66.1252 119.65 62.8522 119.65 58.4105C119.65 53.9409 123.139 50.6957 127.421 50.6957C131.703 50.6957 135.192 53.9374 135.192 58.4105ZM131.79 58.4105C131.79 55.6348 129.768 53.7357 127.421 53.7357C125.074 53.7357 123.052 55.6348 123.052 58.4105C123.052 61.1583 125.074 63.0852 127.421 63.0852C129.768 63.0852 131.79 61.1548 131.79 58.4105Z" fill="#FBBC05"/>
<path d="M151.258 51.1618V65.0122C151.258 70.7096 147.884 73.0365 143.896 73.0365C140.141 73.0365 137.881 70.5357 137.029 68.4905L139.991 67.2626C140.518 68.5183 141.811 70 143.892 70C146.445 70 148.028 68.4313 148.028 65.4783V64.3687H147.909C147.147 65.3044 145.68 66.1218 143.829 66.1218C139.956 66.1218 136.407 62.7618 136.407 58.4383C136.407 54.0835 139.956 50.6957 143.829 50.6957C145.677 50.6957 147.144 51.5131 147.909 52.4209H148.028V51.1652H151.258V51.1618ZM148.269 58.4383C148.269 55.7218 146.449 53.7357 144.133 53.7357C141.786 53.7357 139.82 55.7218 139.82 58.4383C139.82 61.127 141.786 63.0852 144.133 63.0852C146.449 63.0852 148.269 61.127 148.269 58.4383Z" fill="#4285F4"/>
<path d="M156.585 43.0435V65.6522H153.267V43.0435H156.585Z" fill="#34A853"/>
<path d="M169.514 60.9495L172.155 62.7026C171.303 63.9582 169.249 66.1217 165.7 66.1217C161.3 66.1217 158.013 62.7339 158.013 58.4069C158.013 53.8191 161.328 50.6921 165.32 50.6921C169.34 50.6921 171.306 53.8782 171.949 55.6L172.302 56.4765L161.946 60.7478C162.739 62.2956 163.972 63.0852 165.7 63.0852C167.433 63.0852 168.634 62.2365 169.514 60.9495ZM161.387 58.1739L168.309 55.3113C167.929 54.3478 166.783 53.6765 165.435 53.6765C163.706 53.6765 161.3 55.1965 161.387 58.1739Z" fill="#EA4335"/>
<path d="M90.3257 56.4035V53.1304H101.401C101.509 53.7008 101.565 54.3756 101.565 55.1061C101.565 57.5617 100.891 60.5982 98.7185 62.7617C96.6054 64.953 93.9056 66.1217 90.3292 66.1217C83.7001 66.1217 78.1259 60.7443 78.1259 54.1426C78.1259 47.5408 83.7001 42.1635 90.3292 42.1635C93.9964 42.1635 96.6089 43.5965 98.5718 45.4643L96.2527 47.7739C94.8452 46.4591 92.9382 45.4365 90.3257 45.4365C85.4849 45.4365 81.6988 49.3217 81.6988 54.1426C81.6988 58.9635 85.4849 62.8487 90.3257 62.8487C93.4656 62.8487 95.2538 61.593 96.3994 60.4521C97.3284 59.5269 97.9396 58.2052 98.1806 56.4L90.3257 56.4035Z" fill="#4285F4"/>
</g>
<defs>
<filter id="filter0_d_1_1226" x="0" y="0" width="250" height="176" filterUnits="userSpaceOnUse" color-interpolation-filters="sRGB">
<feFlood flood-opacity="0" result="BackgroundImageFix"/>
<feColorMatrix in="SourceAlpha" type="matrix" values="0 0 0 0 0 0 0 0 0 0 0 0 0 0 0 0 0 0 127 0" result="hardAlpha"/>
<feOffset dy="30"/>
<feGaussianBlur stdDeviation="20"/>
<feColorMatrix type="matrix" values="0 0 0 0 0.831373 0 0 0 0 0.85098 0 0 0 0 0.909804 0 0 0 0.2 0"/>
<feBlend mode="normal" in2="BackgroundImageFix" result="effect1_dropShadow_1_1226"/>
<feBlend mode="normal" in="SourceGraphic" in2="effect1_dropShadow_1_1226" result="shape"/>
</filter>
<clipPath id="clip0_1_1226">
<rect width="95" height="32" fill="white" transform="translate(78 42)"/>
</clipPath>
</defs>
</svg>
