<svg width="250" height="176" viewBox="0 0 250 176" fill="none" xmlns="http://www.w3.org/2000/svg">
<g filter="url(#filter0_d_1_1227)">
<rect x="40" y="10" width="170" height="96" rx="16" fill="white"/>
</g>
<g clip-path="url(#clip0_1_1227)">
<path d="M107.064 59.9752L106.336 62.031H106.276C106.155 61.5674 105.932 60.862 105.569 60.0155L101.671 50.2403H97.853V65.8201H100.378V56.2062C100.378 55.6015 100.378 54.9163 100.358 54.0698C100.337 53.6465 100.297 53.324 100.277 53.0822H100.337C100.459 53.6868 100.6 54.1302 100.701 54.4124L105.387 65.7798H107.165L111.81 54.3116C111.911 54.0496 112.012 53.5256 112.113 53.0822H112.174C112.113 54.231 112.073 55.2589 112.053 55.8837V65.7597H114.739V50.2H111.063L107.064 59.9752ZM117.284 54.5938H119.91V65.7597H117.284V54.5938ZM118.617 49.8775C118.173 49.8775 117.809 50.0387 117.506 50.3209C117.203 50.6031 117.042 50.9659 117.042 51.4093C117.042 51.8325 117.203 52.1953 117.506 52.4775C117.809 52.7597 118.173 52.9008 118.617 52.9008C119.062 52.9008 119.445 52.7395 119.728 52.4775C120.031 52.1953 120.193 51.8325 120.193 51.4093C120.193 50.986 120.031 50.6232 119.728 50.3209C119.466 50.0387 119.082 49.8775 118.617 49.8775ZM129.222 54.493C128.737 54.3922 128.232 54.3318 127.747 54.3318C126.555 54.3318 125.465 54.5938 124.556 55.1178C123.647 55.6418 122.92 56.3674 122.455 57.2744C121.97 58.2015 121.728 59.2698 121.728 60.4992C121.728 61.5674 121.97 62.5147 122.435 63.3814C122.899 64.2279 123.546 64.9132 124.414 65.3767C125.242 65.8403 126.212 66.0822 127.303 66.0822C128.555 66.0822 129.625 65.8201 130.474 65.3364L130.494 65.3163V62.8977L130.393 62.9783C130.009 63.2605 129.565 63.5023 129.121 63.6434C128.656 63.8046 128.232 63.8853 127.868 63.8853C126.818 63.8853 125.99 63.5829 125.404 62.9178C124.798 62.2729 124.495 61.386 124.495 60.2775C124.495 59.1287 124.798 58.2217 125.424 57.5566C126.05 56.8915 126.878 56.5488 127.888 56.5488C128.737 56.5488 129.605 56.831 130.393 57.3953L130.494 57.476V54.9163L130.474 54.8961C130.13 54.755 129.747 54.5938 129.222 54.493ZM137.887 54.4124C137.24 54.4124 136.634 54.6139 136.109 55.0372C135.665 55.4 135.362 55.924 135.099 56.5488H135.079V54.5938H132.453V65.7597H135.079V60.0558C135.079 59.0884 135.281 58.2822 135.725 57.6977C136.17 57.093 136.735 56.7907 137.422 56.7907C137.665 56.7907 137.907 56.8511 138.21 56.8915C138.493 56.9721 138.695 57.0527 138.836 57.1535L138.937 57.2341V54.6139L138.876 54.5938C138.695 54.4729 138.331 54.4124 137.887 54.4124ZM145.037 54.3519C143.199 54.3519 141.724 54.8961 140.694 55.9643C139.644 57.0325 139.139 58.5039 139.139 60.3581C139.139 62.0915 139.664 63.5023 140.674 64.5302C141.684 65.538 143.058 66.062 144.774 66.062C146.572 66.062 148.006 65.5178 149.036 64.4294C150.087 63.3411 150.592 61.8899 150.592 60.0961C150.592 58.3225 150.107 56.9116 149.117 55.8837C148.168 54.8558 146.774 54.3519 145.037 54.3519ZM147.138 62.938C146.653 63.5628 145.885 63.8651 144.936 63.8651C143.987 63.8651 143.219 63.5628 142.674 62.8977C142.128 62.2729 141.866 61.3659 141.866 60.217C141.866 59.0279 142.149 58.1209 142.674 57.476C143.219 56.831 143.967 56.5085 144.916 56.5085C145.845 56.5085 146.572 56.8108 147.097 57.4356C147.622 58.0604 147.905 58.9674 147.905 60.1566C147.865 61.3659 147.643 62.3132 147.138 62.938ZM156.449 59.2294C155.621 58.8868 155.096 58.6248 154.854 58.4031C154.652 58.2015 154.551 57.9194 154.551 57.5566C154.551 57.2542 154.672 56.9519 154.975 56.7504C155.278 56.5488 155.621 56.448 156.126 56.448C156.571 56.448 157.035 56.5287 157.479 56.6496C157.924 56.7705 158.328 56.9519 158.651 57.1938L158.752 57.2744V54.8155L158.691 54.7953C158.388 54.6744 157.984 54.5535 157.5 54.4527C157.015 54.3721 156.571 54.3318 156.207 54.3318C154.955 54.3318 153.924 54.6341 153.117 55.2992C152.309 55.924 151.925 56.7705 151.925 57.7581C151.925 58.2822 152.006 58.7457 152.187 59.1287C152.369 59.5116 152.632 59.8744 152.995 60.1767C153.359 60.4589 153.884 60.7814 154.611 61.0837C155.217 61.3457 155.682 61.5473 155.965 61.7085C156.247 61.8698 156.429 62.0511 156.571 62.1922C156.671 62.3535 156.732 62.555 156.732 62.817C156.732 63.5628 156.167 63.9256 155.015 63.9256C154.571 63.9256 154.106 63.8449 153.561 63.6636C153.016 63.4822 152.511 63.2201 152.086 62.9178L151.985 62.8372V65.3969L152.046 65.417C152.43 65.5984 152.894 65.7194 153.46 65.8605C154.025 65.9612 154.53 66.0418 154.975 66.0418C156.328 66.0418 157.439 65.7395 158.227 65.0744C159.035 64.4294 159.459 63.6031 159.459 62.5349C159.459 61.7891 159.257 61.124 158.813 60.6201C158.227 60.1364 157.5 59.6325 156.449 59.2294ZM166.387 54.3519C164.549 54.3519 163.074 54.8961 162.044 55.9643C161.014 57.0325 160.489 58.5039 160.489 60.3581C160.489 62.0915 161.014 63.5023 162.024 64.5302C163.034 65.538 164.408 66.062 166.124 66.062C167.922 66.062 169.356 65.5178 170.386 64.4294C171.437 63.3411 171.942 61.8899 171.942 60.0961C171.942 58.3225 171.457 56.9116 170.467 55.8837C169.518 54.8558 168.124 54.3519 166.387 54.3519ZM168.468 62.938C167.983 63.5628 167.215 63.8651 166.266 63.8651C165.296 63.8651 164.549 63.5628 164.004 62.8977C163.458 62.2729 163.196 61.3659 163.196 60.217C163.196 59.0279 163.478 58.1209 164.004 57.476C164.549 56.831 165.296 56.5085 166.246 56.5085C167.155 56.5085 167.902 56.8108 168.427 57.4356C168.952 58.0604 169.235 58.9674 169.235 60.1566C169.235 61.3659 168.972 62.3132 168.468 62.938ZM185.98 56.7504V54.5938H183.334V51.2884L183.253 51.3085L180.748 52.0542L180.688 52.0744V54.5938H176.729V53.1829C176.729 52.538 176.89 52.0341 177.173 51.7116C177.456 51.3891 177.88 51.2279 178.405 51.2279C178.769 51.2279 179.153 51.3085 179.577 51.4899L179.678 51.5504V49.2729L179.617 49.2527C179.254 49.1318 178.769 49.0511 178.143 49.0511C177.355 49.0511 176.668 49.2325 176.042 49.5349C175.416 49.8775 174.951 50.3411 174.608 50.9659C174.265 51.5705 174.083 52.2558 174.083 53.0418V54.5938H172.245V56.7302H174.083V65.7597H176.729V56.7504H180.688V62.4946C180.688 64.8527 181.799 66.0418 184.021 66.0418C184.384 66.0418 184.768 65.9814 185.131 65.9209C185.515 65.8403 185.798 65.7395 185.96 65.6589L185.98 65.6387V63.4822L185.879 63.5628C185.717 63.6636 185.576 63.7442 185.333 63.8046C185.131 63.8651 184.95 63.8853 184.808 63.8853C184.283 63.8853 183.92 63.7643 183.657 63.462C183.415 63.1798 183.293 62.7163 183.293 62.031V56.7504H185.98Z" fill="#737373"/>
<path d="M64 45H76.3818V57.355H64V45Z" fill="#F25022"/>
<path d="M77.6744 45H90.0562V57.355H77.6744V45Z" fill="#7FBA00"/>
<path d="M64 58.645H76.3818V71.0001H64V58.645Z" fill="#00A4EF"/>
<path d="M77.6744 58.645H90.0562V71.0001H77.6744V58.645Z" fill="#FFB900"/>
</g>
<defs>
<filter id="filter0_d_1_1227" x="0" y="0" width="250" height="176" filterUnits="userSpaceOnUse" color-interpolation-filters="sRGB">
<feFlood flood-opacity="0" result="BackgroundImageFix"/>
<feColorMatrix in="SourceAlpha" type="matrix" values="0 0 0 0 0 0 0 0 0 0 0 0 0 0 0 0 0 0 127 0" result="hardAlpha"/>
<feOffset dy="30"/>
<feGaussianBlur stdDeviation="20"/>
<feColorMatrix type="matrix" values="0 0 0 0 0.831373 0 0 0 0 0.85098 0 0 0 0 0.909804 0 0 0 0.2 0"/>
<feBlend mode="normal" in2="BackgroundImageFix" result="effect1_dropShadow_1_1227"/>
<feBlend mode="normal" in="SourceGraphic" in2="effect1_dropShadow_1_1227" result="shape"/>
</filter>
<clipPath id="clip0_1_1227">
<rect width="122" height="26" fill="white" transform="translate(64 45)"/>
</clipPath>
</defs>
</svg>
