<svg width="82" height="176" viewBox="0 0 82 176" fill="none" xmlns="http://www.w3.org/2000/svg">
<g filter="url(#filter0_d_1_1232)">
<rect x="40" y="10" width="170" height="96" rx="16" fill="white"/>
</g>
<g clip-path="url(#clip0_1_1232)">
<path d="M107.705 53.9592V55.546H107.753C108.327 54.6964 109.278 53.6959 111.387 53.6959C113.028 53.6959 114.287 54.5279 114.827 55.7847H114.875C115.336 55.1493 115.864 54.6683 116.456 54.3278C117.157 53.9241 117.936 53.6924 118.918 53.6924C121.139 53.6924 123.106 55.1317 123.106 58.7618V65.6462H119.719V59.2427C119.719 57.4031 119.052 56.3394 117.666 56.3394C116.651 56.3394 115.913 56.9784 115.632 57.7647C115.535 58.0351 115.49 58.4037 115.49 58.7126V65.6497H112.103V58.9829C112.103 57.4207 111.462 56.3359 110.095 56.3359C109.001 56.3359 108.315 57.1434 108.034 57.835C107.915 58.1299 107.877 58.4704 107.877 58.7899V65.6462H104.487V53.9592H107.705ZM140.587 53.9592V56.1639H140.68C141.302 54.4788 142.778 53.6959 144.074 53.6959C144.4 53.6959 144.58 53.7205 144.842 53.7696V56.8309C144.532 56.7888 144.243 56.7466 143.838 56.7466C142.37 56.7466 141.347 57.5471 141.089 58.8004C141.032 59.0602 141.014 59.341 141.014 59.664V65.6497H137.537V53.9592H140.587ZM149.563 50.0869V53.7661H152.5V56.7431H149.563V61.135C149.563 62.5568 149.949 63.2449 151.095 63.2449C151.635 63.2449 152.032 63.1817 152.376 63.101L152.421 65.569C151.961 65.7304 150.979 65.906 149.982 65.906C148.81 65.906 147.832 65.5233 147.236 64.93C146.555 64.2525 146.24 63.1431 146.24 61.5633V50.0869H149.563ZM102.126 65.6462H98.7547V50.0869H102.126V65.6462ZM93.1352 61.472C93.1352 61.6862 93.1164 61.9108 93.0528 62.1039C92.7905 62.9149 91.8951 63.5995 90.7787 63.5995C89.8459 63.5995 89.1041 63.1045 89.1041 62.0548C89.1041 60.4504 90.9923 60.0045 93.1389 60.0151V61.472H93.1352ZM96.5032 58.674C96.5032 56.0235 95.2968 53.6959 91.217 53.6959C89.1228 53.6959 87.4594 54.2471 86.5528 54.7385L87.2159 56.866C88.0439 56.3745 89.3663 55.9708 90.6176 55.9708C92.6894 55.9673 93.0265 57.0696 93.0265 57.7753V57.9438C88.5122 57.9368 85.6612 59.4007 85.6612 62.3848C85.6612 64.2068 87.111 65.913 89.6361 65.913C91.1908 65.913 92.4871 65.3337 93.2663 64.4034H93.3412C93.3412 64.4034 93.8582 66.422 96.698 65.6497C96.5481 64.8071 96.4994 63.9119 96.4994 62.8341V58.674H96.5032ZM68.7239 50.0869C69.0723 51.7334 70.0613 56.5149 70.0613 56.5149C70.4772 58.4809 70.8593 60.5417 71.1478 62.1706H71.2002C71.4812 60.4399 71.9233 58.8004 72.3953 56.7712L74.0624 50.0869H77.7526L79.3111 56.9432C79.7195 58.8495 80.0454 60.3205 80.3039 62.0934H80.3526C80.6336 60.303 81.0007 58.7723 81.4016 56.8134L82.9001 50.0869H86.4404L82.0534 65.6462C79.2586 66.2184 78.1872 65.1652 77.8051 63.4942C77.4229 61.8196 76.6737 58.6354 76.6737 58.6354C76.2878 56.8906 75.9881 55.6619 75.7783 53.8714H75.7258C75.4261 55.6443 75.1114 56.8871 74.6469 58.6319L72.8074 65.6497C69.9527 66.1833 68.9636 65.3934 68.4167 63.2484C67.9446 61.4123 65 50.0904 65 50.0904H68.7239V50.0869ZM131.918 61.472C131.918 61.6862 131.899 61.9108 131.835 62.1039C131.573 62.9149 130.677 63.5995 129.561 63.5995C128.628 63.5995 127.886 63.1045 127.886 62.0548C127.886 60.4504 129.775 60.0045 131.921 60.0151V61.472H131.918ZM135.285 58.674C135.285 56.0235 134.079 53.6959 129.999 53.6959C127.905 53.6959 126.242 54.2471 125.335 54.7385L125.998 56.866C126.826 56.3745 128.149 55.9708 129.4 55.9708C131.468 55.9673 131.809 57.0696 131.809 57.7753V57.9438C127.298 57.9368 124.447 59.4007 124.447 62.3848C124.447 64.2068 125.901 65.913 128.422 65.913C129.973 65.913 131.273 65.3337 132.049 64.4034H132.127C132.127 64.4034 132.644 66.422 135.484 65.6497C135.334 64.8071 135.285 63.9119 135.285 62.8341V58.674Z" fill="#041E42"/>
</g>
<defs>
<filter id="filter0_d_1_1232" x="0" y="0" width="250" height="176" filterUnits="userSpaceOnUse" color-interpolation-filters="sRGB">
<feFlood flood-opacity="0" result="BackgroundImageFix"/>
<feColorMatrix in="SourceAlpha" type="matrix" values="0 0 0 0 0 0 0 0 0 0 0 0 0 0 0 0 0 0 127 0" result="hardAlpha"/>
<feOffset dy="30"/>
<feGaussianBlur stdDeviation="20"/>
<feColorMatrix type="matrix" values="0 0 0 0 0.831373 0 0 0 0 0.85098 0 0 0 0 0.909804 0 0 0 0.2 0"/>
<feBlend mode="normal" in2="BackgroundImageFix" result="effect1_dropShadow_1_1232"/>
<feBlend mode="normal" in="SourceGraphic" in2="effect1_dropShadow_1_1232" result="shape"/>
</filter>
<clipPath id="clip0_1_1232">
<rect width="120" height="28" fill="white" transform="translate(65 44)"/>
</clipPath>
</defs>
</svg>
